<?xml version="1.0" encoding="UTF-8"?>
<!-- Generator: Adobe Illustrator 16.0.0, SVG Export Plug-In . SVG Version: 6.00 Build 0)  -->
<!DOCTYPE svg PUBLIC "-//W3C//DTD SVG 1.1//EN" "http://www.w3.org/Graphics/SVG/1.1/DTD/svg11.dtd">
<svg version="1.1" xmlns="http://www.w3.org/2000/svg" xmlns:xlink="http://www.w3.org/1999/xlink" x="0px" y="0px" width="400.5px" height="198.4px" viewBox="0 0 400.5 198.4" enable-background="new 0 0 400.5 198.4" xml:space="preserve">
<g id="Ebene_5" display="none">
	<rect x="-30.4" y="-28" display="inline" fill="#E40082" stroke="#FFFFFF" stroke-miterlimit="10" width="483.1" height="289.4"/>
</g>
<g id="Ebene_4">
	<g>
		<path opacity="0.9" fill="#E6E6E6" d="M11.3,61.6c0-1.4-0.2-2.8,0.1-4.1c0.5-2.7,2.4-4.5,4.7-5.8c4.5-2.5,9.3-3.3,14.3-2.2    c1.8,0.4,3.4,1.2,4.6,2.6c0.9,1,1.2,2.2,1.3,3.5c0,0.9,0,1.8,0,2.7c0.1,0,0.2,0.1,0.2,0.1c0.2-0.3,0.3-0.7,0.4-1    c0.5-0.9,0.9-2,1.5-2.8c2-2.8,4.7-4,8.1-3.4c3.9,0.7,6.8,2.8,8.5,6.4c1.5,3.2,1,6.2-1.2,8.9c-0.7,0.8-1.4,1.6-2.1,2.3    c0.3,0.1,0.7,0.2,1,0.2c3,0.5,5,2.3,5.9,5.2c1.7,5.1-0.2,12.6-5.2,15.7c-2.8,1.8-5.8,1.8-8.9,0.7c-1-0.4-1.9-0.9-2.8-1.3    c0,0.6,0.1,1.2,0.1,1.8c-0.2,2.8-1.9,4.5-4.2,5.6c-4.4,2.1-8.8,2-13.1,0c-2-0.9-3.5-2.3-4.4-4.4c-0.1-0.2-0.2-0.4-0.3-0.5    c0-0.1-0.1-0.1-0.2-0.2c-0.3,0.2-0.5,0.4-0.8,0.6c-2.8,2.1-5.8,3.3-9.3,2.6c-3-0.6-5.2-2.3-6.8-5c-0.8-1.4-1.3-3-1.3-4.6    c0.1-2.9,1.6-5,4.2-6.2c0.5-0.2,1-0.4,1.7-0.7c-0.4-0.2-0.8-0.3-1-0.4c-1.2-0.7-2.5-1.3-3.5-2.2C0.4,73.6,0,70.9,1,68.1    C1.6,66,2.8,64.3,4.5,63C6.6,61.3,8.8,60.5,11.3,61.6z"/>
		<path fill="#666666" d="M31,98.7c-2.3,0-4.6-0.5-6.9-1.6c-2.1-0.9-3.7-2.5-4.7-4.6c0-0.1-0.1-0.2-0.1-0.2    c-0.1,0.1-0.3,0.2-0.4,0.3c-3.2,2.4-6.4,3.3-9.7,2.6c-3.1-0.6-5.5-2.4-7.1-5.2c-0.9-1.6-1.4-3.3-1.3-4.9C1,82,2.5,79.8,5.3,78.5    c0.2-0.1,0.4-0.2,0.6-0.3c-0.3-0.2-0.7-0.4-1-0.6c-0.9-0.5-1.8-1-2.6-1.6c-2.3-2.1-2.9-4.9-1.9-8.1c0.7-2.2,1.9-4,3.7-5.4    c2.4-1.9,4.4-2.4,6.5-1.7c0-0.2,0-0.4,0-0.6c0-1-0.1-2,0.1-3c0.5-2.6,2.1-4.6,5-6.2c4.6-2.6,9.5-3.3,14.6-2.2    c2,0.4,3.6,1.3,4.8,2.7c0.9,1,1.3,2.2,1.4,3.8v1c0.1-0.1,0.1-0.2,0.2-0.3c0.3-0.7,0.6-1.3,1.1-1.9c2.1-3,5-4.2,8.6-3.6    c4.1,0.7,7.1,3,8.9,6.7c1.6,3.3,1.2,6.4-1.3,9.4c-0.4,0.5-0.8,1-1.2,1.4c-0.1,0.1-0.2,0.2-0.3,0.3c0.1,0,0.1,0,0.2,0    C55.8,69,58,70.9,59,74c1.7,5.1,0,12.9-5.4,16.3c-2.8,1.7-5.9,2-9.3,0.7c-0.6-0.2-1.1-0.5-1.6-0.7c-0.2-0.1-0.3-0.2-0.5-0.2    c0,0.3,0,0.7,0,1.1c-0.2,2.7-1.7,4.6-4.5,6C35.5,98.1,33.2,98.7,31,98.7z M20.1,91.5c0.1,0.2,0.3,0.5,0.3,0.7    c0.9,1.9,2.3,3.2,4.1,4.1c4.3,2,8.6,1.9,12.7,0c2.5-1.2,3.8-2.9,4-5.2c0-0.3,0-0.7,0-1c0-0.3,0-0.5,0-0.8v-0.7l0.7,0.3    c0.4,0.2,0.9,0.4,1.3,0.6c0.5,0.2,1,0.5,1.5,0.7c3.1,1.2,5.9,1,8.4-0.6c4.9-3.1,6.6-10.5,5-15.2c-0.9-2.7-2.7-4.3-5.5-4.8    c-0.2,0-0.5-0.1-0.7-0.2c-0.1,0-0.2-0.1-0.3-0.1l-0.8-0.2l0.6-0.7c0.3-0.3,0.6-0.6,0.9-1c0.4-0.4,0.8-0.9,1.2-1.4    c2.2-2.6,2.5-5.4,1.1-8.3c-1.6-3.4-4.3-5.5-8.1-6.1c-3.2-0.6-5.8,0.5-7.6,3.2c-0.4,0.5-0.7,1.1-1,1.8c-0.2,0.3-0.3,0.7-0.5,1    c-0.1,0.1-0.1,0.3-0.2,0.4c-0.1,0.2-0.1,0.3-0.2,0.5l-0.1,0.3h-0.3c-0.1,0-0.2,0-0.3-0.1h-0.5l0.1-0.5v-2.7    c-0.1-1.4-0.4-2.4-1.1-3.2c-1.1-1.2-2.5-2-4.3-2.4c-4.8-1.1-9.5-0.3-13.9,2.1c-2.6,1.4-4,3.2-4.5,5.5c-0.2,0.8-0.1,1.7-0.1,2.7    c0,0.4,0,0.9,0,1.3v0.8l-0.7-0.3c-2-0.9-3.8-0.6-6.2,1.3c-1.6,1.2-2.7,2.9-3.4,4.9c-0.9,2.9-0.4,5.2,1.6,7c0.7,0.6,1.5,1,2.4,1.5    c0.4,0.2,0.7,0.4,1.1,0.6c0.2,0.1,0.4,0.2,0.8,0.3l1.4,0.5l-1.2,0.5c-0.7,0.3-1.2,0.5-1.7,0.7c-2.5,1.2-3.8,3-3.9,5.7    c0,1.4,0.4,2.9,1.2,4.4c1.5,2.6,3.6,4.2,6.4,4.7c3,0.6,5.9-0.2,8.9-2.5c0.3-0.2,0.5-0.4,0.8-0.6l0.4-0.3L20.1,91.5z"/>
	</g>
	<g>
		<path opacity="0.9" fill="#E6E6E6" d="M79.5,108.5c-0.8,1-1.7,1.6-3,1.3c0.2,0.7,0.4,1.4,0.4,2c0,1.4-0.7,2.4-1.7,3.3    c-1.9,1.7-4.1,2.5-6.6,2.5c-0.9,0-1.7-0.2-2.5-0.8c-0.5-0.4-0.8-1-1-1.6c-0.1-0.4-0.2-0.9-0.3-1.3c-0.1,0-0.1,0-0.1,0    c-0.1,0.2-0.1,0.4-0.1,0.5c-0.1,0.5-0.2,1-0.4,1.5c-0.7,1.6-1.9,2.4-3.6,2.4c-2,0.1-3.5-0.7-4.7-2.2c-1-1.4-1.1-2.9-0.3-4.4    c0.2-0.4,0.5-0.9,0.8-1.4c-0.1,0-0.3,0-0.5,0c-1.5,0.1-2.6-0.7-3.4-1.9c-1.4-2.3-1.1-6.1,0.9-8.1c1.2-1.1,2.6-1.5,4.2-1.2    c0.5,0.1,1,0.2,1.5,0.3c-0.1-0.3-0.2-0.5-0.2-0.9c-0.2-1.4,0.5-2.3,1.5-3.1c1.9-1.4,4-1.8,6.4-1.3c1,0.2,1.9,0.8,2.6,1.7    c0.1,0.1,0.1,0.2,0.2,0.2c0,0,0.1,0.1,0.1,0.1c0.1-0.1,0.2-0.3,0.3-0.4c1.1-1.3,2.5-2.1,4.2-2.2c1.5,0,2.8,0.6,3.8,1.7    c0.5,0.6,0.9,1.3,1,2.1"/>
		<path fill="#666666" d="M60.3,119c-2,0-3.7-0.8-4.9-2.4c-1.1-1.5-1.3-3.2-0.4-4.9c0.1-0.2,0.2-0.4,0.3-0.6c0,0,0,0,0,0    c-1.5,0-2.7-0.8-3.5-2.1c-1.4-2.4-1.3-6.4,1-8.7c1.3-1.2,2.8-1.6,4.7-1.3c0.2,0,0.5,0.1,0.7,0.1c0,0,0-0.1,0-0.1    c-0.2-1.4,0.4-2.6,1.7-3.6c2-1.5,4.2-1.9,6.8-1.4c1.1,0.2,2,0.8,2.7,1.7c1.4-1.5,2.9-2.3,4.6-2.3c0,0,0,0,0,0c1.6,0,3,0.6,4.1,1.9    c0.7,0.7,1,1.5,1.2,2.4l-1,0.1c-0.1-0.7-0.4-1.3-0.9-1.9c-0.9-1-2-1.5-3.4-1.5c-1.4,0-2.7,0.7-3.9,2c-0.1,0.1-0.1,0.1-0.1,0.2    c-0.1,0.1-0.1,0.2-0.2,0.2l-0.1,0.1h-0.2c-0.2,0-0.4-0.1-0.5-0.2c-0.1-0.1-0.2-0.2-0.3-0.3c-0.5-0.7-1.3-1.2-2.2-1.4    c-2.3-0.5-4.2-0.1-6,1.2c-1,0.8-1.5,1.6-1.3,2.6c0,0.1,0.1,0.3,0.1,0.4c0,0.1,0.1,0.3,0.1,0.4l0.2,0.8l-0.7-0.2    c-0.2,0-0.3-0.1-0.5-0.1c-0.3-0.1-0.6-0.2-0.9-0.2c-1.6-0.3-2.8,0.1-3.8,1.1c-2,1.9-2,5.5-0.8,7.5c0.7,1.2,1.7,1.7,2.9,1.7H57    l-0.3,0.7c-0.1,0.3-0.3,0.6-0.5,0.8c-0.1,0.2-0.2,0.4-0.3,0.5c-0.7,1.4-0.6,2.7,0.3,3.9c1.1,1.4,2.5,2.1,4.3,2    c1.5,0,2.6-0.8,3.1-2.1c0.2-0.4,0.3-0.9,0.4-1.3l0-0.1c0-0.1,0-0.2,0-0.2c0-0.1,0-0.3,0.1-0.4l0.1-0.3h0.9l0.1,0.4    c0.1,0.2,0.1,0.5,0.1,0.7c0,0.2,0.1,0.4,0.1,0.6c0.2,0.6,0.4,1,0.8,1.3c0.6,0.4,1.3,0.7,2.2,0.7c2.4,0.1,4.5-0.7,6.3-2.3    c1-0.9,1.5-1.8,1.5-2.9c0-0.5-0.1-1-0.3-1.6l-0.3-1.1l0.8,0.2c1,0.2,1.7-0.1,2.5-1.1l0.8,0.6c-0.8,1.1-1.7,1.6-2.8,1.6    c0,0,0,0,0,0c0.1,0.5,0.2,1,0.2,1.4c0,1.3-0.6,2.5-1.9,3.6c-2,1.8-4.3,2.6-7,2.6c-1.1,0-2-0.3-2.7-0.9c-0.4-0.3-0.8-0.8-1-1.4    c0,0.1-0.1,0.2-0.1,0.4c-0.7,1.7-2.1,2.7-4,2.7C60.5,119,60.4,119,60.3,119z"/>
	</g>
</g>
<g id="Ebene_2">
	<g id="XMLID_4_">
		<g>
			<path fill="#C2C5C7" d="M394.5,155.9c0.2,4-1.4,7.9-4.3,10.3l-0.3,0c0.5-4.5,0.4-12.3,0.3-18.6h0.1     C391.6,149,394.5,153,394.5,155.9z"/>
			<path fill="#F6F7F7" d="M387.8,115.9c-0.2-2.4-0.4-5-0.7-7.9c-0.1-1-0.2-2.1-0.4-3.1c0.5,0.3,1.5,1.1,2.5,2.6     c0.4,1.7,0.7,3.8,0.9,6.5c0.2,3.4-0.1,6.2-0.5,8.5c-0.8,1.6-1.6,2.6-1.6,2.6s0,0,0,0C388.1,122.5,388.1,119.5,387.8,115.9z"/>
			<path fill="#C2C5C7" d="M390.1,147.5c0.1,6.3,0.2,14.2-0.3,18.6c-0.2,1.7-0.4,2.9-0.8,3.4c-2.2,2.7-8-0.2-7.6-0.7     c0,0,0.1-0.1,0.1-0.4c0.4-1.3,1.7-5.3,1.4-9.1c-0.3-3.1-5.4-5.9-5.4-5.9c1.1-1.2,4.1-7.7,3.5-9.1l0-0.2c2.3-0.3,3.6-0.4,3.6-0.4     c1-0.3,1.2-2.8-0.2-3.3c0,0-0.3,0-0.9,0.1l0-0.5c0.5-0.8,0.7-3.6,3.1-3.6c0,0,0.1,0,0.2,0c2.6,0.1,3.1,3.4,3.1,3.4     C389.9,141.5,390,144.3,390.1,147.5z"/>
			<path fill="#D7D9DB" d="M389.3,107.6c-1-1.4-2.1-2.2-2.5-2.6c-0.2-1.3-0.3-2.6-0.5-3.8C386.6,101.5,388.2,103.2,389.3,107.6z"/>
			<path fill="#F6F7F7" d="M387.8,115.9c0.2,3.5,0.3,6.6,0.3,9.1c-0.3-0.1-4.4-2.1-5.1-9.1c-0.7-7.3,3.5-11.1,3.5-11.1     c0,0,0.1,0.1,0.2,0.2c0.1,1,0.3,2,0.4,3.1C387.5,110.9,387.7,113.6,387.8,115.9z"/>
			<path fill="#D7D9DB" d="M388.1,125.1c0,1.1,0,2.1-0.1,3c-0.8-0.2-6.8-2.2-7.6-11.7c-1-10.3,5.8-15.2,5.8-15.2c0,0,0,0,0,0     c0.2,1.2,0.4,2.5,0.5,3.8c-0.1-0.1-0.2-0.1-0.2-0.2c0,0-4.2,3.8-3.5,11.1C383.7,123,387.8,125,388.1,125.1z"/>
			<path fill="#F3971B" d="M388,128.1c-0.2,5.3-0.9,7.7-0.9,7.7l-0.4,0.6c-2.4,0-2.6,2.8-3.1,3.6l0,0.5c-2.9,0.3-12.6,1.5-23.1,2.6     c0.3-0.5,10-14.8,13.9-31c3.3-13.5,5.7-35.8,5.7-35.8l-0.1-0.4c0.3-0.1,0.7-0.1,1.1-0.1c0,0,0.8,2.8,1.8,7.5     c-0.3,0.3-1.7,2-1,5.9c0.7,3.9,2.6,4.5,3.1,4.6c0.4,2.3,0.8,4.8,1.2,7.3c0,0,0,0,0,0c0,0-6.8,4.9-5.8,15.2     C381.3,125.8,387.2,127.8,388,128.1z"/>
			<path fill="#C2C5C7" d="M381.4,61.7c-1.3,0-2.3,0-2.5-0.1c-0.4-0.2-1.3-13.7,0.5-14.7c2.5-1.4,7.1-0.5,7.6,0     c1.8,1.8,0.2,11.9-1,14.6l-0.7,0.2C384.6,61.7,382.9,61.7,381.4,61.7z"/>
			<path fill="#F6F7F7" d="M385.8,88.6c0.5,3.8-0.7,5.3-0.7,5.3s0,0-0.1,0c-0.7-4.1-1.5-7.6-2.1-10.5c0,0,0.1-0.1,0.1-0.1     S385.2,84.3,385.8,88.6z"/>
			<path fill="#C2C5C7" d="M360.5,143.2c10.5-1.2,20.2-2.3,23.1-2.6c0.6-0.1,0.9-0.1,0.9-0.1c1.4,0.5,1.2,3,0.2,3.3     c0,0-1.3,0.2-3.6,0.4c-4.7,0.5-13.3,1.5-22.3,2.5c-0.7,0.1-1.3,0.1-2,0.2c-2.6,0.3-5.3,0.6-7.8,0.9c-0.7,0.1-1.3,0.1-2,0.2     c-8.3,0.9-15.4,1.6-18,1.7h0c-0.2-1.2-0.4-2.3-0.7-3.2l0.3,0c1.6,0,8.3-0.7,16.6-1.6c1-0.1,2-0.2,3-0.3c3.3-0.4,6.8-0.7,10.3-1.1     C359.1,143.4,359.8,143.3,360.5,143.2z"/>
			<path fill="#F6F7F7" d="M385,93.9c-0.4-0.1-2.3-0.7-3.1-4.6c-0.7-3.9,0.6-5.6,1-5.9C383.6,86.2,384.3,89.8,385,93.9z"/>
			<path fill="#C2C5C7" d="M368,171.3c-3.9,0.8-8,1.6-11,2c-8.1,1.1-28.5,2-28.5,2l-0.6-0.1c0.7-4.2,1.3-10.2,1.4-15.9l0.7,0     c0,0,13.8,0.3,24.8-1c9-1,8.9-1.4,22.7-4.9c0,0,5.1,2.8,5.4,5.9c0.3,3.7-0.9,7.8-1.4,9.1l-0.4,0     C381.1,168.4,374.7,169.9,368,171.3z"/>
			<path fill="#D7D9DB" d="M380.1,76l0.1,0.4c0,0-2.4,22.3-5.7,35.8c-3.9,16.2-13.5,30.5-13.9,31c-0.7,0.1-1.5,0.2-2.2,0.2v-0.4     c0,0,9.9-14.5,13.9-31c3.3-13.5,6.4-41.3,6.4-41.3l0.7-0.4c0.2,0,0.6,0,1.1,0c0.2,0,0.5,0,0.8,0c0.4,0,0.7,0,1.1,0l0.1,0.3     c0,1.9,0.1,3.3-0.1,5.4c-0.3-0.1-0.7-0.1-1.1-0.1S380.4,75.9,380.1,76z"/>
			<path fill="#F3971B" d="M381.1,144.4c0.5,1.4-2.5,7.9-3.5,9.1c-13.8,3.5-13.7,3.9-22.7,4.9c-11,1.2-24.8,1-24.8,1l-0.7,0     c0.1-3.5,0-6.9-0.4-9.6h0c2.6-0.1,9.7-0.8,18-1.7l0,0.3c0.6,2.4,2.2,6,5.1,5.8c3.2-0.3,6.7-6.9,6.7-7l0-0.4c9-1,17.6-2,22.3-2.5     L381.1,144.4z"/>
			<path fill="#F6F7F7" d="M246.3,72.2c-2.1,0-41-6.3-77.4-8.9c-30.3-2.2-64.5-5.6-94.9-5.6c0.3-1.5,0.7-3.1,1.1-4.6     c1.4-5.7,2.7-11.4,4.4-16.9c1.6-4.9,4.4-14.2,8.2-17C111.9,1.5,244.6-4.5,315,4.9c13.5,1.8,23.9,4.1,31.7,6.7     c11.9,3.8,29,41.2,33.7,58.6v0.1c-0.4,0-0.8,0-1.1,0l-0.7,0.4c0,0-3.1,27.8-6.4,41.3c-4,16.5-13.9,31-13.9,31v0.4     c-3.5,0.4-7,0.8-10.3,1.1l0-0.2c-12-31.3-48.4-56.9-74.7-66l-0.1-1.6c0,0-2.1-0.1-3.6-0.1v0c0-0.1,0-3.6-1.3-6.2     c-1.4-2.8-7.1-3.8-10.4-4.2c0-0.8,0.1-1.7,0.1-2.6l0.6,0c11.5,0.2,8.7-8.7,8.7-8.7s-7-25.8-8.9-29.9L244,25.1     c-0.1,1.8,4.4,23.3,4.4,30.2l0,0.2c-0.4,0.1-0.7,0.2-0.9,0.3c0,0-0.4,12.7-0.4,15.4c0,0.4,0.1,0.7,0.4,1L246.3,72.2z M242,61.6     l1.5-0.2l-3.2-35.9l-13.7-0.1c-2.7,5.6-8.3,34.4-8.3,34.4S236.3,61.1,242,61.6z M370.1,59.3c2-4.5-17.5-37.4-19.6-37.8     c-4.8-0.9-20-1.7-25.8,0.3c-2.9,1,13.3,36.2,16.9,38.1c3.6,1.9,9.6,1.7,16.9,1.6C365.2,61.5,368.8,62.5,370.1,59.3z M359.2,100.2     l5.1-21.1l-13.1,8.7l-0.1,1.2c-0.3,2.2,0.1,17.6-0.1,20.9C351.1,110,358.5,101.5,359.2,100.2z M349,85.2l14.5-7.9l-18.7-2.3     c0,0.1-18.6,3.5-18.6,3.5S346,83.7,349,85.2z M337.3,100.9c0.2,0.4,12.4,9.8,11.8,9.1l-1.7-22.1l-21.7-7.7     C325.6,80.6,335.3,97.2,337.3,100.9z M333.8,61.6c0.9-5.3-13.6-34.9-16.5-39.6c-4.2-1.9-45.7-4.2-50.1,0.7     c-2.3,2.6,5.1,36.1,10.8,39c2.9,1.5,15.8,1.4,28.5,1.3C319.2,62.9,333.4,64.3,333.8,61.6z M222.6,25C222.7,25,222.7,25,222.6,25     C222.6,25,222.6,25,222.6,25c-1,0-13.7-0.4-16.2,0.3l-0.7,1.1c-1.2,2.1-7.2,26.5-7.3,32.5c0,0,15.2,1.2,15.2,1.3     C214.6,53.9,222.4,25.8,222.6,25z M190,59.3c0.7-6.1,7.3-31.9,6.6-34.6c-0.4-1.7-20.1-1.5-23.1-0.4l-0.4,0.3     c-2.5,0.8-9.9,32.5-8.6,33.2C165.6,58.4,189.7,59.6,190,59.3z M157.2,57.7c0,0,7.5-29,5.4-33.1c-1-2-16.8-1.2-19.8-0.4l-1.2,0.8     c-1.8,3-7.8,29.7-5.8,30.5C137.2,56.1,153.4,57.4,157.2,57.7z M127,55.5c0,0,6.3-29.7,6-30.2c-0.3-0.5-13.4-2-18.6,0l-0.3,1     c-1.5,3.4-6.1,27.9-5.5,27.9C110.6,54.3,122.7,55.2,127,55.5z"/>
			<path opacity="0.5" fill="#42A4D9" d="M350.5,21.6c2.1,0.4,21.6,33.2,19.6,37.8c-1.4,3.1-5,2.1-11.6,2.2     c-7.3,0.1-13.3,0.3-16.9-1.6c-3.6-1.9-19.8-37.1-16.9-38.1C330.5,19.9,345.8,20.7,350.5,21.6z"/>
			<path fill="#68666B" d="M368,171.3c0,0.4-0.9,20.6-26.5,21.3c-23.1,0.6-28.3-8.6-29.2-14.9l0-0.2c2.8-0.1,4.7-0.3,5.1-0.6     c3.1,5.7,9.6,3,9.6,3c0.3-0.9,0.7-2.6,1-4.7l0.6,0.1c0,0,20.3-0.9,28.5-2C360,172.9,364,172.1,368,171.3z"/>
			<path fill="#808083" d="M364.3,79.1l-5.1,21.1c-0.7,1.3-8.1,9.8-8.1,9.8c0.1-3.3-0.2-18.7,0.1-20.9l0.1-1.2L364.3,79.1z"/>
			<path fill="#96969A" d="M363.5,77.3L349,85.2c-2.9-1.5-22.7-6.8-22.7-6.8s18.6-3.3,18.6-3.5L363.5,77.3z"/>
			<path fill="#D7D9DB" d="M358.8,147.1c0,0.1-3.5,6.8-6.7,7c-3,0.2-4.5-3.4-5.1-5.8l0-0.3c0.7-0.1,1.3-0.1,2-0.2l0,0.1     c0,0,1.3,3.9,3.2,3.9c2.5,0,4.7-4.7,4.7-4.7l0-0.2c0.7-0.1,1.3-0.2,2-0.2L358.8,147.1z"/>
			<path fill="#F6F7F7" d="M356.8,146.9l0,0.2c0,0-2.2,4.7-4.7,4.7c-1.9,0-3.2-3.9-3.2-3.9l0-0.1     C351.5,147.5,354.1,147.2,356.8,146.9z"/>
			<path fill="#F3971B" d="M349.1,110c0.5,0.7-11.7-8.7-11.8-9.1c-2-3.7-11.7-20.3-11.5-20.7l21.7,7.7L349.1,110z"/>
			<path fill="#D7D9DB" d="M268.3,77.2c0-0.4,0-0.6,0-0.6c0.3,0,0.8,0,1.3,0c1.6,0,3.6,0.1,3.6,0.1l0.1,1.6     c26.3,9.1,62.7,34.7,74.7,66l0,0.2c-1,0.1-2,0.2-3,0.3l0-0.3c-9.3-27.7-50.4-56.5-72-61.9l-0.2,0.7c-1.1,0-3.2,0.1-4.5,0.3     c0-0.5,0-1,0-1.5C268.4,80.1,268.3,78.1,268.3,77.2z"/>
			<path fill="#F3971B" d="M95.5,112.7c-6.1-0.1-11.4,0.3-11.9,0.8c-1.1,1-3.5,9.2-1.5,14.1h0h-3.6h0c-0.5-2.1-1.5-4.2-2.8-5.3     c-0.8-0.7-1.6-1.2-2.4-1.6c-0.8-2.3-1.4-4.6-1.9-6.9c-0.3-1.6-0.6-3.2-0.8-4.8c-0.8-6.3-0.8-12.6-0.5-18.9     c0.4-9.9,1.4-19.8,3.2-29.4h0l0.2,0c14.9-2,172.1,9.9,194.7,21.3h0.1c0,0.5,0,1,0,1.5c1.3-0.1,3.4-0.3,4.5-0.3l0.2-0.7     c21.5,5.5,62.7,34.3,72,61.9l0,0.3c-8.2,0.9-14.9,1.5-16.6,1.6l-0.3,0c-0.4-1.1-0.8-2-1.4-2.5c-2.5-2.1-3.5,0.2-5.4,1.8l-0.8,0.1     l-31.9-1c-4.4-0.2-7.9,5.6-8.6,7.4c-0.3,0.9-1.2,3.8-2,6.8l-0.5,0l-26.7-2.5c-2.3-0.4-4.1,0.3-5.3,1.6l-0.4-0.5     c-1.1-4.7-3.1-11.6-5.9-18.1c0,0,0,0,0-0.1c0,0,0-0.1,0-0.1c0-0.1-0.1-0.2-0.1-0.3c-3.5-8.2-8.2-15.5-13.3-16.4     c-9.1-1.5-13.5-0.8-13.5-0.8c-7.4-0.5-11.6,8.7-13.5,15c-1.1,4.1-1.8,8.7-2.2,12.8c-0.2,1.8-0.1,3.3,0.2,4.6L129.8,140l-2.3-0.5     c-6.8-1.3-9.6-6-10.8-10.8v0c-0.1-0.6-0.2-1-0.3-1.2c0,0,0-0.1,0-0.1c-0.9-4.3-0.9-8.5-1.8-9.9     C112.2,114.1,103.2,112.9,95.5,112.7z M306.2,136.6c7.4-0.8,12.7-5.3,12.7-12.8c0-6.8-7.4-13.7-13.7-13.5     c-15.3,0.6-15,14.7-12.5,19.1C295.1,133.7,299.9,137.3,306.2,136.6z M291.8,105.9c2.6-1.5,4.2-5.5,3.4-8.3c-0.6-2.3-3-4-5.1-4.9     c-1.1-0.5-2.5-0.7-4,0.1c-0.1,0-0.2,0.1-0.2,0.1c-0.1,0-0.1,0.1-0.2,0.1c-0.1,0-0.2,0.1-0.2,0.1c-3.3,2.2-3.3,7.7-1.2,10.4     C285.8,105.6,289.3,107.4,291.8,105.9z M205.5,86.2l-6.3-0.4v-0.1v-1.1c-1-0.6-5-0.6-5.5-0.1c-0.5,0.5-1,3.7-0.1,4.3     c1,0.7,5.3,0.4,5.3,0.4l0.4-1.1C201.9,88.2,205,88.4,205.5,86.2z"/>
			<path opacity="0.45" fill="#44A9E0" d="M317.4,22c2.9,4.6,17.4,34.3,16.5,39.6c-0.5,2.8-14.7,1.3-27.2,1.4     c-12.7,0.1-25.6,0.2-28.5-1.3c-5.8-3-13.2-36.4-10.8-39C271.6,17.8,313.2,20.1,317.4,22z"/>
			<path fill="#C2C5C7" d="M328.9,149.7c0.4,2.7,0.5,6.1,0.4,9.6c-0.1,5.7-0.7,11.7-1.4,15.9c-0.3,2.1-0.7,3.8-1,4.7     c0,0-6.5,2.7-9.6-3c2.7-5.4,3.4-11.8-1.3-16.7l0.2-0.2c1.1-0.4,3.9-8.3,4.3-9.7c1.6-0.7,2.7-3.9,0.1-4.4l0.8-0.1     c1.9-1.6,2.9-3.9,5.4-1.8c0.6,0.5,1.1,1.3,1.4,2.5C328.5,147.4,328.8,148.5,328.9,149.7z"/>
			<path fill="#C2C5C7" d="M283.2,159.5c-0.8,3-1.7,6.2-1.7,6.5c-0.1,0.4-3.9,0.6-4.4-0.5c-0.2-0.5,0.4-3.4,1.2-6.4     c0.7-2.9,1.6-5.9,2-6.8c0.7-1.8,4.1-7.6,8.6-7.4l31.9,1c2.6,0.4,1.5,3.7-0.1,4.4c-0.3,0-29.7-1.5-31.1-1.1     c-1.4,0.4-4.4,3.7-5.2,6.4C284,156.6,283.6,158,283.2,159.5z"/>
			<path fill="#F3971B" d="M320.5,150.4c-0.4,1.5-3.2,9.3-4.3,9.7l-0.2,0.2c-0.1-0.1-0.1-0.1-0.2-0.2c0,0-21.3,0.3-32.7-0.5     c0.4-1.5,0.8-2.9,1.1-3.8c0.7-2.7,3.7-6,5.2-6.4C290.8,148.9,320.2,150.4,320.5,150.4z"/>
			<path fill="#C2C5C7" d="M316.1,160.3c4.7,4.9,4,11.3,1.3,16.7c-0.5,0.4-2.3,0.6-5.1,0.6c-10.8,0.3-35.8-1.3-49.9-2.2     c-6-0.4-10-0.7-10.2-0.7c-1.7-0.3-3.2-1.1-4.4-2.1c-4.5-3.7-5.1-11-2-14.3c1.2-1.3,3-2,5.3-1.6l26.7,2.5l0.5,0     c-0.8,3-1.4,5.8-1.2,6.4c0.4,1.1,4.3,0.9,4.4,0.5c0-0.3,0.9-3.5,1.7-6.5c11.3,0.8,32.7,0.5,32.7,0.5     C315.9,160.1,316,160.2,316.1,160.3z"/>
			<path fill="#D7D9DB" d="M318.9,123.7c0,7.5-5.4,12-12.7,12.8c-6.3,0.7-11.1-2.8-13.5-7.3c-2.4-4.4-2.8-18.5,12.5-19.1     C311.5,110,318.9,116.9,318.9,123.7z M312.5,130.8c2.1-1.7,5.8-6.7,0.8-13c-5-6.3-11.8-5-14.7-3c-2.9,2-6.3,6.3-1.8,14.2     C301.3,136.7,310.4,132.5,312.5,130.8z"/>
			<path fill="#F6F7F7" d="M313.3,117.7c5,6.3,1.3,11.3-0.8,13c-2.1,1.7-11.2,6-15.7-1.9c-4.5-7.9-1.1-12.2,1.8-14.2     C301.5,112.7,308.3,111.4,313.3,117.7z"/>
			<path fill="#F6F7F7" d="M286.2,92.8c1.5-0.8,2.9-0.6,4-0.1c2.1,0.9,4.4,2.6,5.1,4.9c0.8,2.7-0.8,6.7-3.4,8.3     c-2.5,1.5-6-0.3-7.5-2.3c-2.1-2.8-2-8.3,1.2-10.4c0.1-0.1,0.2-0.1,0.2-0.1c0.1,0,0.1-0.1,0.2-0.1C286,92.9,286.1,92.9,286.2,92.8     z"/>
			<path fill="#F6F7F7" d="M285.9,93c-0.1,0-0.1,0.1-0.2,0.1C285.8,93,285.9,93,285.9,93z"/>
			<path fill="#F6F7F7" d="M268,77.1c-1.3-0.4-4.8-1.6-5.1-1.6c-2.4-0.7-5.1-1.4-7.5-2c1.3-0.3,2.2-0.8,2.1-1.5     c0-0.5,0.2-2.9,0.3-5.8c3.3,0.4,9.1,1.5,10.4,4.2c1.3,2.6,1.3,6.1,1.3,6.2v0c-0.5,0-1,0-1.3,0c0,0,0,0.2,0,0.6c0,0,0,0,0,0     c0,0,0,0-0.1,0C268.2,77.1,268.1,77.1,268,77.1C268,77.1,268,77.1,268,77.1z"/>
			<path fill="#D7D9DB" d="M268.4,82.2L268.4,82.2C245.7,70.8,88.5,58.8,73.6,60.8l-0.2,0c0.2-1,0.4-2.1,0.6-3.1     c30.3,0,64.6,3.4,94.9,5.6c36.4,2.6,75.3,8.9,77.4,8.9l1.3,0c1.3,1.4,5.3,1.8,7.8,1.2c2.4,0.7,5.1,1.4,7.5,2     c0.2,0,3.8,1.2,5.1,1.6c0,0,0.1,0,0.1,0c0.1,0,0.1,0,0.2,0c0,0,0,0,0.1,0c0,0,0,0,0,0C268.3,78.1,268.4,80.1,268.4,82.2z"/>
			<path opacity="0.5" fill="#42A4D9" d="M267.3,54.9c0,0,2.8,8.9-8.7,8.7l-0.6,0c0.1-3.1,0-6.1-0.6-7.5c-0.6-1.3-6.2-1.4-8.9-0.7     l0-0.2c-0.1-6.8-4.5-28.4-4.4-30.2l14.4-0.1C260.3,29.1,267.3,54.9,267.3,54.9z"/>
			<path fill="#68666B" d="M262.4,175.3c0,0-1.1,15.2-13.5,20.5c-6.7,2.9-23.7,1.9-23.7,1.9v-0.1c12.5,0.3,21.7-14.6,22.1-24.6     l0.5-0.4c1.2,1,2.7,1.7,4.4,2.1C252.3,174.6,256.4,174.9,262.4,175.3z"/>
			<path fill="#C2C5C7" d="M257.8,66.2c-0.1,2.9-0.3,5.3-0.3,5.8c0,0.7-0.9,1.2-2.1,1.5c-2.5,0.5-6.6,0.2-7.8-1.2     c-0.3-0.3-0.4-0.6-0.4-1c0-2.8,0.4-15.4,0.4-15.4c0.2-0.1,0.5-0.2,0.9-0.3c2.6-0.7,8.3-0.6,8.9,0.7c0.6,1.3,0.7,4.4,0.6,7.5     C257.9,64.5,257.9,65.4,257.8,66.2z"/>
			<path fill="#808083" d="M247.8,172.5l-0.5,0.4c-0.4,10-9.6,24.9-22.1,24.6c-3.2-0.1-6.5-1.1-10-3.4c-9.9-6.5-13.7-20.3-13.1-33.4     c0.7-15.9,7.8-30.9,18-30.9c13.9,0,18.4,7.5,19.3,9.3c0,0.1,0.1,0.2,0.1,0.3c0,0,0,0.1,0,0.1c0,0,0,0.1,0,0.1     c2.7,6.4,4.8,13.3,5.9,18.1l0.4,0.5C242.7,161.5,243.3,168.8,247.8,172.5z"/>
			<path opacity="0.55" fill="#3F9ED1" d="M240.3,25.5l3.2,35.9l-1.5,0.2c-5.6-0.5-23.7-1.8-23.7-1.8s5.6-28.9,8.3-34.4L240.3,25.5z     "/>
			<path fill="#484949" d="M197.1,154.4c-0.3-1.3-0.4-2.8-0.2-4.6c0.4-4.1,1.1-8.7,2.2-12.8c1.9-6.3,6.1-15.5,13.5-15     c0,0,4.3-0.7,13.5,0.8c5.1,0.8,9.7,8.2,13.3,16.4c-0.9-1.9-5.4-9.4-19.3-9.3c-10.2,0-17.3,15-18,30.9l-0.1,0     C202,160.8,198.2,159.6,197.1,154.4z"/>
			<path opacity="0.6" fill="#3E9ACC" d="M206.3,25.3c2.6-0.7,15.2-0.2,16.2-0.3c-0.2,0.8-8,28.9-9,35.1c0-0.1-15.2-1.3-15.2-1.3     c0.1-5.9,6.1-30.4,7.3-32.5L206.3,25.3z"/>
			<path fill="#C2C5C7" d="M199.2,85.8l6.3,0.4c-0.5,2.2-3.6,2-6.2,1.9l-0.4,1.1c0,0-4.4,0.2-5.3-0.4c-1-0.7-0.5-3.8,0.1-4.3     c0.5-0.5,4.6-0.5,5.5,0.1v1.1V85.8z"/>
			<path opacity="0.65" fill="#3C96C7" d="M196.6,24.7c0.7,2.7-5.9,28.5-6.6,34.6c-0.3,0.3-24.4-0.9-25.6-1.6     c-1.2-0.6,6.1-32.4,8.6-33.2l0.4-0.3C176.5,23.3,196.1,23,196.6,24.7z"/>
			<path opacity="0.7" fill="#3B92C2" d="M162.5,24.6c2.1,4.1-5.4,33.1-5.4,33.1c-3.7-0.3-19.9-1.6-21.4-2.2c-2-0.8,4-27.5,5.8-30.5     l1.2-0.8C145.7,23.4,161.5,22.6,162.5,24.6z"/>
			<path opacity="0.75" fill="#398EBD" d="M133,25.4c0.3,0.5-6,30.2-6,30.2c-4.3-0.3-16.5-1.2-18.5-1.3c-0.6,0,4-24.4,5.5-27.9     l0.3-1C119.6,23.4,132.7,24.9,133,25.4z"/>
			<path fill="#68666B" d="M129.8,140l-0.1,0.4c0.5,3.8-0.2,12.6-4.8,18.3c-4.8,5.9-17.9,3.8-22.3,3.8c4.7,0,12.9-2,14.7-18.7     c0.8-7.2-0.1-12.7-0.6-15.1c1.3,4.8,4,9.5,10.8,10.8L129.8,140z"/>
			<path fill="#808083" d="M116.6,128.7c0.5,2.4,1.4,7.9,0.6,15.1c-1.8,16.6-10,18.7-14.7,18.7c0,0-0.1,0-0.1,0c-0.3,0-0.5,0-0.8,0     c-3.9-0.2-14.4-9.3-14.4-23.7c0-2.7,0.1-5.1,0.3-7.3c1.5-14.6,7.3-18.4,7.9-18.7c7.7,0.2,16.7,1.3,19,4.7     c0.9,1.4,0.9,5.6,1.8,9.9c0,0,0,0.1,0,0.1C116.4,127.9,116.5,128.3,116.6,128.7L116.6,128.7z"/>
			<path fill="#484949" d="M83.6,113.5c0.5-0.5,5.8-0.9,11.9-0.8c-0.5,0.3-6.4,4.1-7.9,18.7l-0.2,0c-2.9-0.1-4.5-1.7-5.3-3.8     C80.1,122.7,82.5,114.6,83.6,113.5z"/>
			<path fill="#C2C5C7" d="M73.4,120.8c0.8,0.3,1.6,0.8,2.4,1.6c1.3,1.1,2.3,3.2,2.8,5.3h0c0.6,2.5,0.3,5.1-1.6,6.4     c0,0-8,0.9-11-0.5c-3.5-2.2-1.6-5.5-1.9-9.3c4.7-0.4,3.5-3.1,3.5-3.1c-0.2-0.3-0.3-0.5-0.4-0.8l0.4-0.2     C69.8,120.2,71.6,120,73.4,120.8z"/>
			<path fill="#C2C5C7" d="M71.4,113.9l-1.1,0.1c-4.2,0.7-4.2,4-3.1,6.4c0.1,0.3,0.3,0.6,0.4,0.8c0,0,1.2,2.7-3.5,3.1     c0,0-3.1-2-2.6-8.2c0.5-7.8,8.2-6.8,8.2-6.8l1-0.1C70.8,110.7,71.1,112.3,71.4,113.9z"/>
		</g>
		<g>
			<path fill="none" stroke="#1B1C20" stroke-miterlimit="10" d="M70.3,113.9c-4.2,0.7-4.2,4-3.1,6.4c0.1,0.3,0.3,0.6,0.4,0.8     c0,0,1.2,2.7-3.5,3.1"/>
			<path fill="none" stroke="#1B1C20" stroke-miterlimit="10" d="M78.5,127.6c-0.5-2.1-1.5-4.2-2.8-5.3c-0.8-0.7-1.6-1.2-2.4-1.6     c-1.8-0.7-3.6-0.6-5.8-0.6"/>
			<path fill="none" stroke="#1B1C20" stroke-miterlimit="10" d="M69.6,109.2c0,0-7.7-1-8.2,6.8c-0.4,6.3,2.6,8.2,2.6,8.2     c0.3,3.8-1.7,7.1,1.9,9.3c3,1.4,11,0.5,11,0.5c1.9-1.3,2.2-3.9,1.6-6.4"/>
			<polyline fill="none" stroke="#1B1C20" stroke-miterlimit="10" points="78.5,127.6 78.6,127.6 82.1,127.6    "/>
			<path fill="none" stroke="#1B1C20" stroke-miterlimit="10" d="M116.3,127.4c-0.9-4.3-0.9-8.5-1.8-9.9c-2.3-3.4-11.3-4.6-19-4.7     c-6.1-0.1-11.4,0.3-11.9,0.8c-1.1,1-3.5,9.2-1.5,14.1c0.8,2.1,2.5,3.7,5.3,3.8"/>
			<path fill="none" stroke="#1B1C20" stroke-miterlimit="10" d="M116.6,128.7c-0.1-0.4-0.2-0.8-0.3-1.2"/>
			<path fill="none" stroke="#1B1C20" stroke-miterlimit="10" d="M197.1,154.4L197.1,154.4L129.8,140l-2.3-0.5     c-6.8-1.3-9.6-6-10.8-10.8"/>
			<path fill="none" stroke="#1B1C20" stroke-miterlimit="10" d="M239.3,139.2c-3.5-8.2-8.2-15.5-13.3-16.4     c-9.1-1.5-13.5-0.8-13.5-0.8c-7.4-0.5-11.6,8.7-13.5,15c-1.1,4.1-1.8,8.7-2.2,12.8c-0.2,1.8-0.1,3.3,0.2,4.6     c1.1,5.2,4.9,6.4,4.9,6.4"/>
			<path fill="none" stroke="#1B1C20" stroke-miterlimit="10" d="M239.5,139.6c0,0,0-0.1,0-0.1"/>
			<path fill="none" stroke="#1B1C20" stroke-miterlimit="10" d="M245.4,157.7c-1.1-4.7-3.1-11.6-5.9-18.1"/>
			<path fill="none" stroke="#1B1C20" stroke-miterlimit="10" d="M239.5,139.7C239.5,139.7,239.5,139.6,239.5,139.7     c0-0.1,0-0.1-0.1-0.2c0-0.1-0.1-0.2-0.1-0.3c-0.9-1.9-5.4-9.4-19.3-9.3c-10.2,0-17.3,15-18,30.9c-0.6,13.1,3.2,26.9,13.1,33.4     c3.5,2.3,6.9,3.3,10,3.4c12.5,0.3,21.7-14.6,22.1-24.6"/>
			<path fill="none" stroke="#1B1C20" stroke-miterlimit="10" d="M225.2,197.7c0,0,16.9,1,23.7-1.9c12.4-5.3,13.5-20.5,13.5-20.5"/>
			<path fill="none" stroke="#1B1C20" stroke-miterlimit="10" d="M102.6,162.5c4.7,0,12.9-2,14.7-18.7c0.8-7.2-0.1-12.7-0.6-15.1v0     c-0.1-0.6-0.2-1-0.3-1.2c0,0,0-0.1,0-0.1"/>
			<path fill="none" stroke="#1B1C20" stroke-miterlimit="10" d="M95.6,112.7C95.6,112.7,95.6,112.7,95.6,112.7     c-0.6,0.3-6.5,4.1-7.9,18.7c-0.2,2.2-0.3,4.6-0.3,7.3c0,14.4,10.5,23.5,14.4,23.7c0.2,0,0.5,0,0.8,0"/>
			<path fill="none" stroke="#1B1C20" stroke-miterlimit="10" d="M102.4,162.5c0,0,0.1,0,0.1,0c4.5,0,17.5,2.2,22.3-3.8     c4.6-5.7,5.4-14.5,4.8-18.3"/>
			<path fill="none" stroke="#1B1C20" stroke-miterlimit="10" d="M277.8,159.1l-26.7-2.5c-2.3-0.4-4.1,0.3-5.3,1.6     c-3,3.3-2.5,10.6,2,14.3c1.2,1,2.7,1.7,4.4,2.1c0.2,0,4.2,0.3,10.2,0.7c14.1,1,39.1,2.5,49.9,2.2c2.8-0.1,4.7-0.3,5.1-0.6"/>
			<path fill="none" stroke="#1B1C20" stroke-miterlimit="10" d="M316.2,160.1c1.1-0.4,3.9-8.3,4.3-9.7"/>
			<path fill="none" stroke="#1B1C20" stroke-miterlimit="10" d="M320.5,150.4c1.6-0.7,2.7-3.9,0.1-4.4l-31.9-1     c-4.4-0.2-7.9,5.6-8.6,7.4c-0.3,0.9-1.2,3.8-2,6.8c-0.8,3-1.4,5.8-1.2,6.4c0.4,1.1,4.3,0.9,4.4,0.5c0-0.3,0.9-3.5,1.7-6.5     c0.4-1.5,0.8-2.9,1.1-3.8c0.7-2.7,3.7-6,5.2-6.4C290.8,148.9,320.2,150.4,320.5,150.4"/>
			<path fill="none" stroke="#1B1C20" stroke-miterlimit="10" d="M283.2,159.5L283.2,159.5c11.4,0.8,32.7,0.5,32.7,0.5     c0.1,0.1,0.1,0.1,0.2,0.2c4.7,4.9,4,11.3,1.3,16.7c3.1,5.7,9.6,3,9.6,3c0.3-0.9,0.7-2.6,1-4.7c0.7-4.2,1.3-10.2,1.4-15.9     c0.1-3.5,0-6.9-0.4-9.6c-0.2-1.2-0.4-2.3-0.7-3.2c-0.4-1.1-0.8-2-1.4-2.5c-2.5-2.1-3.5,0.2-5.4,1.8"/>
			<path fill="none" stroke="#1B1C20" stroke-miterlimit="10" d="M330,159.3c0,0,13.8,0.3,24.8-1c9-1,8.9-1.4,22.7-4.9"/>
			<path fill="none" stroke="#1B1C20" stroke-miterlimit="10" d="M328.5,175.3c0,0,20.3-0.9,28.5-2c3-0.4,7-1.2,11-2     c6.8-1.4,13.2-2.9,13.2-2.9"/>
			<path fill="none" stroke="#1B1C20" stroke-miterlimit="10" d="M383.6,140c0.5-0.8,0.7-3.6,3.1-3.6c0,0,0.1,0,0.2,0     c2.6,0.1,3.1,3.4,3.1,3.4c0,1.8,0.1,4.6,0.1,7.8c0.1,6.3,0.2,14.2-0.3,18.6c-0.2,1.7-0.4,2.9-0.8,3.4c-2.2,2.7-8-0.2-7.6-0.7     c0,0,0.1-0.1,0.1-0.4c0.4-1.3,1.7-5.3,1.4-9.1c-0.3-3.1-5.4-5.9-5.4-5.9c1.1-1.2,4.1-7.7,3.5-9.1"/>
			<path fill="none" stroke="#1B1C20" stroke-miterlimit="10" d="M390.2,147.5c1.4,1.5,4.3,5.5,4.3,8.4c0.2,4-1.4,7.9-4.3,10.3"/>
			<path fill="none" stroke="#1B1C20" stroke-miterlimit="10" d="M383.6,140.6c0.6-0.1,0.9-0.1,0.9-0.1c1.4,0.5,1.2,3,0.2,3.3     c0,0-1.3,0.2-3.6,0.4c-4.7,0.5-13.3,1.5-22.3,2.5c-0.7,0.1-1.3,0.1-2,0.2c-2.6,0.3-5.3,0.6-7.8,0.9c-0.7,0.1-1.3,0.1-2,0.2     c-8.3,0.9-15.4,1.6-18,1.7"/>
			<path fill="none" stroke="#1B1C20" stroke-miterlimit="10" d="M360.5,143.2c10.5-1.2,20.2-2.3,23.1-2.6"/>
			<path fill="none" stroke="#1B1C20" stroke-miterlimit="10" d="M328.5,146.5c1.6,0,8.3-0.7,16.6-1.6c1-0.1,2-0.2,3-0.3     c3.3-0.4,6.8-0.7,10.3-1.1c0.7-0.1,1.5-0.2,2.2-0.2"/>
			<path fill="none" stroke="#1B1C20" stroke-miterlimit="10" d="M312.2,177.7c0.9,6.4,6.1,15.6,29.2,14.9     c25.6-0.7,26.5-20.9,26.5-21.3c0,0,0,0,0,0"/>
			<path fill="none" stroke="#1B1C20" stroke-miterlimit="10" d="M380.4,70.3c-4.6-17.4-21.8-54.8-33.7-58.6     c-7.8-2.6-18.2-4.9-31.7-6.7C244.6-4.5,111.9,1.5,87.6,19.3c-3.8,2.8-6.5,12.1-8.2,17c-1.6,5.4-3,11.2-4.4,16.9     c-0.4,1.5-0.7,3-1.1,4.6c-0.2,1-0.4,2.1-0.6,3.1h0c-1.8,9.6-2.8,19.5-3.2,29.4c-0.3,6.3-0.4,12.7,0.5,18.9     c0.2,1.6,0.5,3.2,0.8,4.8c0.5,2.3,1.1,4.6,1.9,6.9c0,0,0,0.1,0,0.1"/>
			<path fill="none" stroke="#1B1C20" stroke-miterlimit="10" d="M382.9,83.4c-1-4.7-1.8-7.5-1.8-7.5"/>
			<path fill="none" stroke="#1B1C20" stroke-miterlimit="10" d="M386.2,101.2c-0.4-2.6-0.8-5-1.2-7.3"/>
			<path fill="none" stroke="#1B1C20" stroke-miterlimit="10" d="M387.1,135.8c0,0,0.6-2.5,0.9-7.7"/>
			<path fill="none" stroke="#1B1C20" stroke-miterlimit="10" d="M386,61.5c1.1-2.7,2.8-12.8,1-14.6c-0.5-0.5-5.1-1.3-7.6,0     c-1.8,1-1,14.4-0.5,14.7c0.2,0.1,1.3,0.1,2.5,0.1c1.5,0,3.2,0,3.9,0"/>
			<path fill="none" stroke="#1B1C20" stroke-miterlimit="10" d="M382.7,56.3c-0.7,0.9-1.1,3.1-1.3,5.5c-0.3,3.4-0.2,7.3-0.2,8.6"/>
			<path fill="none" stroke="#1B1C20" stroke-miterlimit="10" d="M379.3,70.3c0.2,0,0.6,0,1.1,0c0.2,0,0.5,0,0.8,0     c0.4,0,0.7,0,1.1,0l0.1,0.3c0,1.9,0.1,3.3-0.1,5.4c-0.3-0.1-0.7-0.1-1.1-0.1s-0.8,0.1-1.1,0.1c-0.4,0.1-0.6,0.1-0.6,0.1"/>
			<path fill="none" stroke="#1B1C20" stroke-miterlimit="10" d="M385,93.9C385.1,93.9,385.1,93.9,385,93.9c0.1,0,1.3-1.5,0.8-5.3     c-0.6-4.3-2.8-5.3-2.8-5.3s0,0-0.1,0.1c-0.3,0.3-1.7,2-1,5.9C382.7,93.2,384.6,93.8,385,93.9z"/>
			<path fill="none" stroke="#1B1C20" stroke-miterlimit="10" d="M389.3,107.6c-1.1-4.4-2.7-6-3.1-6.4c0,0,0,0,0,0     c0,0-6.8,4.9-5.8,15.2c0.9,9.5,6.8,11.5,7.6,11.7c0.1,0,0.1,0,0.1,0s0.9-2,1.6-5.6"/>
			<path fill="none" stroke="#B26B16" stroke-miterlimit="10" d="M360.5,143.2C360.5,143.2,360.5,143.2,360.5,143.2     c0.4-0.5,10-14.8,13.9-31c3.3-13.5,5.7-35.8,5.7-35.8"/>
			<path fill="none" stroke="#B26B16" stroke-miterlimit="10" d="M347,148.3c0.6,2.4,2.2,6,5.1,5.8c3.2-0.3,6.7-6.9,6.7-7     c0,0-0.1,0.1-0.1,0.3"/>
			<path fill="none" stroke="#1B1C20" stroke-miterlimit="10" d="M285.9,93c-0.1,0-0.1,0.1-0.2,0.1"/>
			<path fill="none" stroke="#1B1C20" stroke-miterlimit="10" d="M287.2,92.5c-0.4,0.1-0.7,0.2-1.1,0.4c-0.1,0-0.2,0.1-0.2,0.1     c-0.1,0-0.1,0.1-0.2,0.1c-0.1,0-0.2,0.1-0.2,0.1c-3.3,2.2-3.3,7.7-1.2,10.4c1.5,2,5,3.8,7.5,2.3c2.6-1.5,4.2-5.5,3.4-8.3     c-0.6-2.3-3-4-5.1-4.9c-1.1-0.5-2.5-0.7-4,0.1"/>
			<path fill="none" stroke="#1B1C20" stroke-miterlimit="10" d="M298.6,114.7c2.9-2,9.7-3.3,14.7,3c5,6.3,1.3,11.3-0.8,13     c-2.1,1.7-11.2,6-15.7-1.9C292.3,121,295.7,116.7,298.6,114.7z"/>
			<path fill="none" stroke="#1B1C20" stroke-miterlimit="10" d="M292.7,129.3c2.4,4.4,7.3,7.9,13.5,7.3c7.4-0.8,12.7-5.3,12.7-12.8     c0-6.8-7.4-13.7-13.7-13.5C289.9,110.8,290.2,124.9,292.7,129.3z"/>
			<path fill="none" stroke="#1B1C20" stroke-miterlimit="10" d="M301.3,121.2c0-0.5,0-0.8-0.1-1.2c0.3,2.9,0.3,6.4-0.3,8.8"/>
			<path fill="none" stroke="#1B1C20" stroke-miterlimit="10" d="M305.1,119.5c1.2,2.2,1.5,6.1,0.3,8.6c0.1-0.3,0.3-0.4,0.4-0.7"/>
			<path fill="none" stroke="#1B1C20" stroke-miterlimit="10" d="M309.8,119.9c1.5,0.7,0.4,7.8-1,8.8"/>
			<path fill="none" stroke="#1B1C20" stroke-miterlimit="10" d="M198.9,89.2c0,0-4.4,0.2-5.3-0.4c-1-0.7-0.5-3.8,0.1-4.3     c0.5-0.5,4.6-0.5,5.5,0.1v1.1v0.1l6.3,0.4c-0.5,2.2-3.6,2-6.2,1.9"/>
			<path fill="none" stroke="#1B1C20" stroke-miterlimit="10" d="M272.9,83.4c-1.1,0-3.2,0.1-4.5,0.3c0-0.5,0-1,0-1.5     c-0.1-2.1-0.1-4-0.1-5c0-0.4,0-0.6,0-0.6c0.3,0,0.8,0,1.3,0c1.6,0,3.6,0.1,3.6,0.1h-0.2"/>
			<path fill="none" stroke="#1B1C20" stroke-miterlimit="10" d="M269.6,76.6c0-0.1,0-3.6-1.3-6.2c-1.4-2.8-7.1-3.8-10.4-4.2     c-1.4-0.2-2.4-0.2-2.4-0.2"/>
			<path fill="none" stroke="#1B1C20" stroke-miterlimit="10" d="M248.5,55.5c-0.4,0.1-0.7,0.2-0.9,0.3c0,0-0.4,12.7-0.4,15.4     c0,0.4,0.1,0.7,0.4,1c1.3,1.4,5.3,1.8,7.8,1.2c1.3-0.3,2.2-0.8,2.1-1.5c0-0.5,0.2-2.9,0.3-5.8c0-0.8,0.1-1.7,0.1-2.6     c0.1-3.1,0-6.1-0.6-7.5C256.7,54.9,251.1,54.8,248.5,55.5z"/>
			<path fill="none" stroke="#1B1C20" stroke-miterlimit="10" d="M114.4,25.4c5.2-2,18.2-0.5,18.6,0c0.3,0.5-6,30.2-6,30.2     c-4.3-0.3-16.5-1.2-18.5-1.3c-0.6,0,4-24.4,5.5-27.9"/>
			<path fill="none" stroke="#1B1C20" stroke-miterlimit="10" d="M142.7,24.2c3-0.8,18.8-1.6,19.8,0.4c2.1,4.1-5.4,33.1-5.4,33.1     c-3.7-0.3-19.9-1.6-21.4-2.2c-2-0.8,4-27.5,5.8-30.5"/>
			<path fill="none" stroke="#1B1C20" stroke-miterlimit="10" d="M173.5,24.3c3-1.1,22.7-1.4,23.1,0.4c0.7,2.7-5.9,28.5-6.6,34.6     c-0.3,0.3-24.4-0.9-25.6-1.6c-1.2-0.6,6.1-32.4,8.6-33.2"/>
			<path fill="none" stroke="#1B1C20" stroke-miterlimit="10" d="M267.3,22.7c4.4-4.9,45.9-2.6,50.1-0.7     c2.9,4.6,17.4,34.3,16.5,39.6c-0.5,2.8-14.7,1.3-27.2,1.4c-12.7,0.1-25.6,0.2-28.5-1.3C272.4,58.8,264.9,25.3,267.3,22.7z"/>
			<path fill="none" stroke="#1B1C20" stroke-miterlimit="10" d="M350.5,21.6c2.1,0.4,21.6,33.2,19.6,37.8c-1.4,3.1-5,2.1-11.6,2.2     c-7.3,0.1-13.3,0.3-16.9-1.6c-3.6-1.9-19.8-37.1-16.9-38.1C330.5,19.9,345.8,20.7,350.5,21.6z"/>
			<path fill="none" stroke="#1B1C20" stroke-miterlimit="10" d="M258.6,63.6c11.5,0.2,8.7-8.7,8.7-8.7s-7-25.8-8.9-29.9L244,25.1     c-0.1,1.8,4.4,23.3,4.4,30.2"/>
			<polyline fill="none" stroke="#1B1C20" stroke-miterlimit="10" points="240.3,25.5 240.3,25.5 243.5,61.4    "/>
			<path fill="none" stroke="#1B1C20" stroke-miterlimit="10" d="M243.6,61.7c0.2,0-0.4-0.1-1.6-0.2c-5.6-0.5-23.7-1.8-23.7-1.8     s5.6-28.9,8.3-34.4l13.7,0.1"/>
			<path fill="none" stroke="#1B1C20" stroke-miterlimit="10" d="M222.6,25c-0.2,0.8-8,28.9-9,35.1c0-0.1-15.2-1.3-15.2-1.3     c0.1-5.9,6.1-30.4,7.3-32.5"/>
			<path fill="none" stroke="#1B1C20" stroke-miterlimit="10" d="M222.6,25C222.7,25,222.7,25,222.6,25C222.6,25,222.6,25,222.6,25z     "/>
			<path fill="none" stroke="#1B1C20" stroke-miterlimit="10" d="M206.3,25.3c2.6-0.7,15.2-0.2,16.2-0.3"/>
			<line fill="none" stroke="#1B1C20" stroke-miterlimit="10" x1="79.2" y1="67.2" x2="91" y2="68.1"/>
			<line fill="none" stroke="#1B1C20" stroke-miterlimit="10" x1="79.2" y1="70.8" x2="90.5" y2="71.8"/>
			<line fill="none" stroke="#1B1C20" stroke-miterlimit="10" x1="78.6" y1="74.4" x2="89.6" y2="75.2"/>
			<line fill="none" stroke="#1B1C20" stroke-miterlimit="10" x1="78" y1="77.8" x2="89.2" y2="79"/>
			<line fill="none" stroke="#1B1C20" stroke-miterlimit="10" x1="78" y1="81.2" x2="88.5" y2="81.8"/>
			<path fill="none" stroke="#B26B16" stroke-miterlimit="10" d="M268.3,82.2C245.7,70.8,88.5,58.8,73.6,60.8"/>
			<path fill="none" stroke="#B26B16" stroke-miterlimit="10" d="M273.1,82.7c21.5,5.5,62.7,34.3,72,61.9"/>
			<path fill="none" stroke="#1B1C20" stroke-miterlimit="10" d="M268.4,77.2C268.4,77.2,268.4,77.2,268.4,77.2     C268.4,77.2,268.4,77.2,268.4,77.2C268.3,77.2,268.3,77.2,268.4,77.2"/>
			<path fill="none" stroke="#1B1C20" stroke-miterlimit="10" d="M388.1,125.1C388.1,125.1,388.1,125.1,388.1,125.1     c0,0,0.8-0.9,1.6-2.6c0.9-1.9,1.9-4.8,1.7-8.2c-0.1-3.1-1.1-5.3-2.1-6.7c-1-1.4-2.1-2.2-2.5-2.6c-0.1-0.1-0.2-0.1-0.2-0.2     c0,0-4.2,3.8-3.5,11.1C383.7,123,387.8,125,388.1,125.1z"/>
			<path fill="none" stroke="#1B1C20" stroke-miterlimit="10" d="M385.5,111.2c0.4,2.2,0.5,7,0.5,7.4"/>
			<path fill="none" stroke="#1B1C20" stroke-miterlimit="10" d="M387.6,119.1c0.1-1.4,0.2-2.4,0.2-3.2c0.2-2.3,0.1-2.9-0.3-5.2"/>
		</g>
	</g>
	<g>
		<ellipse fill="#ADAEB1" cx="101.8" cy="137.3" rx="6.9" ry="13"/>
		<path fill="#1B1C20" d="M101.8,150.9c-4.2,0-7.4-5.9-7.4-13.5s3.3-13.5,7.4-13.5s7.4,5.9,7.4,13.5S105.9,150.9,101.8,150.9z     M101.8,124.8c-3.6,0-6.4,5.6-6.4,12.5s2.9,12.5,6.4,12.5c3.6,0,6.4-5.6,6.4-12.5S105.3,124.8,101.8,124.8z"/>
	</g>
	<g>
		<path fill="#ECEDEE" d="M106.4,137.3c0,5.8-2.5,10.5-5.6,10.5c-3.1,0-7.4-4.7-7.4-10.5s4.3-10.5,7.4-10.5    C103.9,126.8,106.4,131.5,106.4,137.3z"/>
		<path fill="#1B1C20" d="M100.8,148.3c-3.6,0-7.9-5.1-7.9-11c0-5.9,4.4-11,7.9-11c3.4,0,6.1,4.8,6.1,11S104.3,148.3,100.8,148.3z     M100.8,127.3c-2.7,0-6.9,4.3-6.9,10s4.2,10,6.9,10c2.8,0,5.1-4.6,5.1-10S103.6,127.3,100.8,127.3z"/>
	</g>
	<g>
		<path fill="#ADAEB1" d="M94.4,137.7l3.4,0.3c0,0,0.5,2.1-1.6,2.2C94.3,140.3,94.4,137.7,94.4,137.7z"/>
		<path fill="#ADAEB1" d="M96.1,140.7c-0.6,0-1.1-0.2-1.4-0.6c-0.8-0.9-0.8-2.3-0.8-2.5c0-0.1,0.1-0.3,0.2-0.4s0.2-0.1,0.4-0.1    l3.4,0.3c0.2,0,0.4,0.2,0.4,0.4c0,0.1,0.2,1.2-0.4,2.1c-0.4,0.5-0.9,0.7-1.7,0.8L96.1,140.7z M95,138.2c0.1,0.4,0.2,0.9,0.5,1.2    c0.2,0.2,0.4,0.3,0.7,0.3l0.1,0c0.4,0,0.7-0.1,0.9-0.4c0.2-0.2,0.2-0.6,0.2-0.9L95,138.2z"/>
	</g>
	<g id="XMLID_3_">
		<g>
			<path fill="#ADAEB1" d="M223.3,144.8c5.4,0,9.7,8.2,9.7,18.3c0,10.1-4.4,18.2-9.7,18.2c-3.2,0-6.1-3-7.9-7.5c2,2.5,4.5,4,6.6,4     c4.3,0,7.8-6.6,7.8-14.7c0-8.1-3.5-14.7-7.8-14.7c-2.1,0-4.6,1.5-6.6,4C217.2,147.7,220.1,144.8,223.3,144.8z"/>
			<path fill="#ADAEB1" d="M217.8,163.9c0,0,0.6,3-2.2,3.1c-0.9,0-1.5-0.3-1.8-0.9c-0.1-0.9-0.1-1.7-0.1-2.6L217.8,163.9z"/>
			<path fill="#ECEDEE" d="M215.4,173.7c-0.9-2.2-1.5-4.8-1.7-7.6c0.4,0.5,1,0.9,1.8,0.9c2.9-0.1,2.2-3.1,2.2-3.1l-4.2-0.4     c0-0.2,0-0.3,0-0.5c0-4,0.7-7.7,1.9-10.7c2-2.5,4.5-4,6.6-4c4.3,0,7.8,6.6,7.8,14.7c0,8.1-3.5,14.7-7.8,14.7     C219.9,177.8,217.4,176.2,215.4,173.7z"/>
			<path fill="#ADAEB1" d="M213.6,163.5c0,0.9,0.1,1.8,0.1,2.6c-0.8-1-0.7-2.7-0.7-2.7L213.6,163.5z"/>
			<path fill="#ECEDEE" d="M213,163.5c0,0-0.1,1.6,0.7,2.7c0.3,2.8,0.9,5.4,1.7,7.6c-2.2-2.7-3.8-6.5-3.8-10.7c0-4.2,1.6-8,3.8-10.7     c-1.2,3-1.9,6.7-1.9,10.7c0,0.2,0,0.3,0,0.5L213,163.5z"/>
		</g>
		<g>
			<path fill="none" stroke="#1B1C20" stroke-miterlimit="10" d="M215.4,152.3c1.8-4.6,4.6-7.5,7.9-7.5c5.4,0,9.7,8.2,9.7,18.3     c0,10.1-4.4,18.2-9.7,18.2c-3.2,0-6.1-3-7.9-7.5"/>
			<path fill="none" stroke="#1B1C20" stroke-miterlimit="10" d="M215.4,152.3c2-2.5,4.5-4,6.6-4c4.3,0,7.8,6.6,7.8,14.7     c0,8.1-3.5,14.7-7.8,14.7c-2.1,0-4.6-1.5-6.6-4c-2.2-2.7-3.8-6.5-3.8-10.7C211.6,158.8,213.2,155,215.4,152.3z"/>
			<path fill="none" stroke="#ADAEB1" stroke-linejoin="round" stroke-miterlimit="10" d="M213.7,166.2c-0.8-1-0.7-2.7-0.7-2.7     l0.6,0.1l4.2,0.4c0,0,0.6,3-2.2,3.1C214.7,167.1,214.1,166.7,213.7,166.2z"/>
		</g>
	</g>
</g>
<g id="Schrift">
	<g>
		<g>
			<path fill="#FFFFFF" d="M109.7,75.3l-1.5,21.8c-0.1,0.9,0,1.6,0.1,2c0.1,0.4,0.3,0.6,0.7,0.7l3.8,0.6l-0.1,3.2     c-1,0.1-2.4-0.1-4.1-0.4c-1.4-0.3-2-2.2-1.8-5.8l1.5-22.2L109.7,75.3z"/>
		</g>
		<g>
			<path fill="#FFFFFF" d="M115.3,87.1l0.1-3c1.5-0.6,2.8-0.8,4-0.8c1,0.1,1.7,0.6,2.2,1.7c0.4,1.1,0.5,2.9,0.4,5.5l-1,14.9     l-1.3-0.3l0-3.4c-1.1,2.3-2.3,3.3-3.5,3.1c-0.7-0.1-1.3-0.8-1.7-1.9c-0.4-1.1-0.5-2.5-0.4-4.4l0.1-2.1c0.1-1.6,0.4-2.9,0.8-3.7     c0.5-0.9,1-1.2,1.8-1.2l3.3,0.3l0.1-1.7c0.1-1.3,0-2.2-0.2-2.7c-0.2-0.5-0.6-0.8-1.2-0.8C118.1,86.8,116.9,86.9,115.3,87.1z      M115.7,97.4l-0.1,1.1c-0.1,1,0,1.8,0.1,2.2c0.2,0.5,0.4,0.8,0.8,0.8c1,0.2,2-0.7,3-2.5l0.3-3.8l-3-0.4c-0.4,0-0.6,0.2-0.8,0.6     C115.8,95.9,115.7,96.6,115.7,97.4z"/>
		</g>
		<g>
			<path fill="#FFFFFF" d="M127.8,96.9l-0.4,0l-3.1,9.4l-1.9-0.4l3.7-10.8l-2-10.8l1.9,0.1l1.6,9.1l0.4,0l2.9-8.9l2.1,0.1l-3.7,10.7     l2.4,12.2l-2.1-0.4L127.8,96.9z"/>
		</g>
		<g>
			<path fill="#FFFFFF" d="M135.1,88.7l0-3.4c1.9-0.6,3.6-0.9,5.1-0.8c1.3,0.1,2.3,0.7,2.8,1.9c0.6,1.2,0.7,3.3,0.5,6.3l-1.2,17     l-1.7-0.3l0-3.9c-1.4,2.6-2.9,3.7-4.5,3.4c-1-0.2-1.7-0.9-2.1-2.2c-0.5-1.2-0.6-2.9-0.5-5l0.2-2.4c0.1-1.8,0.5-3.2,1-4.2     c0.6-1,1.3-1.4,2.2-1.3l4.3,0.5l0.1-1.9c0.1-1.5,0-2.5-0.3-3.1c-0.3-0.6-0.8-0.9-1.6-1C138.8,88.4,137.3,88.4,135.1,88.7z      M135.8,100.3l-0.1,1.2c-0.1,1.2,0,2,0.2,2.6c0.2,0.6,0.6,0.9,1.1,1c1.2,0.2,2.5-0.7,3.8-2.7l0.3-4.3l-3.9-0.5     c-0.5,0-0.8,0.2-1,0.7C136,98.6,135.8,99.3,135.8,100.3z"/>
		</g>
		<g>
			<path fill="#FFFFFF" d="M155.4,85.2l-0.6,4.8l-0.8-0.1c-1-0.1-2.5,0.8-4.6,2.6l-1.3,18.3l-2.3-0.4l1.7-24.8l1.8,0.1l0,3.8     c2-2.9,3.8-4.3,5.4-4.2L155.4,85.2z"/>
		</g>
		<g>
			<path fill="#FFFFFF" d="M162.7,75.1l-2.1,31.1c-0.2,2.4-0.6,4.1-1.2,5.2c-0.7,1.1-1.5,1.5-2.6,1.3c-0.6-0.1-1.2-0.4-1.8-0.8     l0.2-1.5l1.5,0.3c1.7,0.3,2.6-1.3,2.9-4.7l2.1-31L162.7,75.1z"/>
		</g>
		<g>
			<path fill="#FFFFFF" d="M172.7,96.9l-2.8-1.9c-1.4-0.6-2.3-1.7-2.9-3.3c-0.5-1.7-0.6-4.1-0.4-7.2c0.2-2.3,0.4-4.1,0.7-5.5     c0.3-1.4,0.8-2.4,1.4-3c0.6-0.7,1.3-1.1,2-1.3c0.7-0.2,1.7-0.3,2.9-0.2c2.2,0.1,4.2,0.3,6.1,0.8l-0.3,1.8     c-2.9-0.3-4.9-0.4-5.9-0.4c-0.7,0-1.3,0-1.7,0c-0.4,0-0.8,0.1-1.3,0.3c-0.5,0.1-0.8,0.4-1.1,0.7c-0.2,0.3-0.5,0.8-0.7,1.4     c-0.3,0.6-0.4,1.3-0.6,2.2c-0.1,0.9-0.2,2-0.3,3.3c-0.2,2.6-0.1,4.6,0.3,5.8c0.4,1.2,1.1,2.1,2.2,2.5l4.5,1.9     c1.6,0.6,2.7,1.7,3.2,3.5c0.6,1.8,0.7,4.4,0.5,7.9c-0.2,2.4-0.4,4.3-0.8,5.7c-0.4,1.4-0.9,2.4-1.6,3.1c-0.7,0.6-1.4,1-2.2,1     c-0.8,0.1-1.7,0-3-0.2c-2.3-0.4-4.3-1.1-6.1-1.9l0.2-1.7c2.3,0.7,4.3,1.2,6.1,1.5c1.1,0.2,1.9,0.2,2.5,0.1     c0.6-0.1,1.2-0.4,1.7-0.9c0.5-0.5,0.9-1.3,1.2-2.4c0.3-1.1,0.5-2.6,0.6-4.4c0.2-3,0.1-5.1-0.3-6.4     C176.4,98.3,173.9,97.4,172.7,96.9z"/>
		</g>
	</g>
	<g>
	</g>
	<g>
	</g>
	<g>
	</g>
	<g>
	</g>
	<g>
	</g>
	<g>
	</g>
</g>
</svg>